# xmcd CD database file
#
# Track frame offsets:
#	150
#	15480
#	30060
#	45604
#	57609
#	71715
#	85523
#	101547
#	116027
#	129081
#
# Disc length: 1912 seconds
#
# Revision: 0
# Processed by: cddbd v1.5.2PL0 Copyright (c) Steve Scherf et al.
# Submitted via: CDex 1.70beta2
#
DISCID=7307760a
DTITLE=Matt Scullion - The Laptop Tapes
DYEAR=2015
DGENRE=Country
TTITLE0=My Own Way
TTITLE1=There's No Road
TTITLE2=Snakebite
TTITLE3=Stand Tall
TTITLE4=Just A Song
TTITLE5=Heavens Got A New Star
TTITLE6=You Know My Heart
TTITLE7=Tears On A Page
TTITLE8=Some Mistakes
TTITLE9=Do Some Shots
EXTD=YEAR: 2015
EXTT0=
EXTT1=
EXTT2=
EXTT3=
EXTT4=
EXTT5=
EXTT6=
EXTT7=
EXTT8=
EXTT9=
PLAYORDER=
